<svg width="116" height="32" viewBox="0 0 116 32" fill="none" xmlns="http://www.w3.org/2000/svg">
<g clip-path="url(#clip0_1127_2841)">
<path d="M27.3769 6.66672L16.4707 0.486541C15.3229 -0.163482 13.9097 -0.163482 12.7619 0.486541L1.85564 6.66672C0.707872 7.31675 0 8.51755 0 9.82008V22.1804C0 23.4805 0.707872 24.6838 1.85564 25.3338L12.7619 31.514C13.9097 32.164 15.3229 32.164 16.4707 31.514L27.3769 25.3338C28.5247 24.6838 29.2326 23.483 29.2326 22.1804V9.82008C29.2326 8.52004 28.5247 7.31675 27.3769 6.66672ZM20.9859 13.482C20.9859 14.0676 20.5713 13.9559 20.326 13.8393L20.1491 13.7401L17.7777 12.4103L15.2369 10.9886C14.792 10.8125 14.2965 10.8199 13.8591 11.011L11.8164 12.1572C11.8164 12.1572 11.3841 12.4276 11.8164 12.6683L14.5695 14.209L17.7726 16.0052L20.1617 17.3425C20.6395 17.6129 20.948 18.0992 20.9833 18.6376V20.4487C20.9783 20.9796 20.7179 21.4783 20.2805 21.7909L17.7752 23.1927L15.4923 24.4729C14.9336 24.8128 14.2282 24.8128 13.6695 24.4729V24.4828L11.3664 23.1927L8.87115 21.7959C8.4262 21.4808 8.16075 20.9722 8.16075 20.4338V18.3671C8.18098 18.1488 8.27957 17.8685 8.69671 18.1017L11.3664 19.5977L13.7732 20.9474C14.2763 21.1955 14.8678 21.1955 15.3709 20.9474L15.4721 20.8928C15.5201 20.8655 15.5681 20.8357 15.6136 20.8035V20.8159L17.2468 19.9004C17.2519 19.8855 17.2746 19.8657 17.3176 19.8409C17.6564 19.6498 17.4617 19.4439 17.3631 19.3645L14.5771 17.804L11.3664 16.0102L8.96722 14.6655H8.97228C8.53239 14.4149 8.23407 13.9807 8.1557 13.487V11.5022C8.17845 10.9986 8.43126 10.5296 8.84334 10.2294L11.3613 8.81776L13.6569 7.53011L13.7428 7.48297C14.294 7.2051 14.9487 7.22495 15.4822 7.53011L17.7777 8.81527L20.2603 10.2071C20.7204 10.5222 20.9909 11.0407 20.9833 11.5915V13.4796L20.9859 13.482Z" fill="white"/>
<path d="M37.5474 15.1466C39.0593 15.4518 41.0287 16.1638 41.0059 18.3372C41.0059 19.3742 40.6115 20.188 39.805 20.7561C39.0188 21.3044 38.0227 21.5898 36.8421 21.5898C34.7084 21.5898 33.2572 20.776 32.4912 19.1708L34.812 17.8906C35.123 18.7639 35.7853 19.213 36.8421 19.213C37.7952 19.213 38.2705 18.9276 38.2705 18.3396C38.2705 17.7913 37.4413 17.4862 36.3845 17.2207C34.8525 16.8337 32.926 16.2035 32.926 14.0897C32.926 13.0923 33.3002 12.3009 34.046 11.7302C34.812 11.1398 35.7449 10.8569 36.8623 10.8569C38.541 10.8569 39.9896 11.6285 40.7986 13.0129L38.5208 14.2336C38.1896 13.5414 37.6309 13.1965 36.8623 13.1965C36.1797 13.1965 35.6615 13.5215 35.6615 14.0301C35.6615 14.5784 36.4907 14.8836 37.5474 15.1491V15.1466Z" fill="white"/>
<path d="M52.0891 12.4224C53.0827 13.4595 53.5807 14.7199 53.5807 16.2233C53.5807 17.7268 53.0827 19.0095 52.0891 20.0441C51.1158 21.0812 49.915 21.5898 48.527 21.5898C47.1391 21.5898 45.9585 21.101 45.1722 20.1061V24.9366H42.5V11.1422H45.1722V12.3406C45.9585 11.3432 47.0784 10.8569 48.527 10.8569C49.9756 10.8569 51.1158 11.3854 52.0891 12.4224V12.4224ZM48.029 19.0914C48.8582 19.0914 49.5408 18.8259 50.0793 18.2975C50.638 17.7492 50.9085 17.057 50.9085 16.2233C50.9085 15.3897 50.638 14.6975 50.0793 14.1691C49.5408 13.6208 48.8582 13.3553 48.029 13.3553C47.1998 13.3553 46.5172 13.6208 45.9787 14.1691C45.4402 14.6975 45.1697 15.3897 45.1697 16.2233C45.1697 17.057 45.4402 17.7492 45.9787 18.2975C46.5172 18.8259 47.1998 19.0914 48.029 19.0914V19.0914Z" fill="white"/>
<path d="M55.0244 21.3069V7.55225H57.6966V21.3069H55.0244Z" fill="white"/>
<path d="M61.9539 17.3026C62.3053 18.5828 63.2786 19.213 64.8739 19.213C65.8902 19.213 66.6764 18.8681 67.1947 18.1958L69.3486 19.4164C68.3323 20.8604 66.8205 21.5923 64.8334 21.5923C63.1143 21.5923 61.7466 21.0837 60.7101 20.0665C59.6735 19.0493 59.1553 17.7691 59.1553 16.2234C59.1553 14.6777 59.6735 13.4174 60.6873 12.4002C61.7011 11.3631 63.0283 10.8545 64.6236 10.8545C66.1354 10.8545 67.3995 11.3631 68.3728 12.4002C69.3663 13.4372 69.8644 14.6976 69.8644 16.2234C69.8644 16.5682 69.8239 16.9156 69.7607 17.3001H61.9514L61.9539 17.3026ZM67.1947 15.2707C66.8837 13.8888 65.8472 13.2164 64.6261 13.2164C63.1977 13.2164 62.2219 13.9682 61.9134 15.2707H67.1972H67.1947Z" fill="white"/>
<path d="M79.7343 11.9759C80.48 12.7276 80.8542 13.7448 80.8542 15.0672V21.3094H78.182V15.3922C78.182 14.0301 77.373 13.2982 76.1317 13.2982C74.7438 13.2982 73.8539 14.1319 73.8539 15.8189V21.3069H71.1816V11.1422H73.8539V12.281C74.496 11.3258 75.5325 10.8569 76.9407 10.8569C78.0809 10.8569 79.0112 11.2241 79.7368 11.9759H79.7343Z" fill="white"/>
<path d="M90.5419 7.07568H93.2141V21.3067H90.5419V20.1084C89.7557 21.1058 88.6357 21.592 87.1871 21.592C85.7385 21.592 84.5983 21.0834 83.6022 20.0464C82.6289 19.0093 82.1309 17.7291 82.1309 16.2256C82.1309 14.7221 82.6289 13.4618 83.6022 12.4247C84.5958 11.3877 85.7992 10.8592 87.1871 10.8592C88.575 10.8592 89.7557 11.348 90.5419 12.3429V7.07568ZM87.6826 19.0912C88.5118 19.0912 89.1944 18.8257 89.7329 18.2973C90.2714 17.749 90.5419 17.0568 90.5419 16.2231C90.5419 15.3895 90.2714 14.6973 89.7329 14.1689C89.1944 13.6206 88.5118 13.3551 87.6826 13.3551C86.8534 13.3551 86.1708 13.6206 85.6121 14.1689C85.0736 14.6973 84.8031 15.3895 84.8031 16.2231C84.8031 17.0568 85.0736 17.749 85.6121 18.2973C86.1708 18.8257 86.8559 19.0912 87.6826 19.0912Z" fill="white"/>
<path d="M97.4715 17.3026C97.8229 18.5828 98.7962 19.213 100.391 19.213C101.408 19.213 102.194 18.8681 102.712 18.1958L104.866 19.4164C103.85 20.8604 102.338 21.5923 100.351 21.5923C98.6319 21.5923 97.2642 21.0837 96.2276 20.0665C95.1911 19.0493 94.6729 17.7691 94.6729 16.2234C94.6729 14.6777 95.1911 13.4174 96.2049 12.4002C97.2187 11.3631 98.5459 10.8545 100.141 10.8545C101.653 10.8545 102.917 11.3631 103.89 12.4002C104.884 13.4372 105.382 14.6976 105.382 16.2234C105.382 16.5682 105.341 16.9156 105.278 17.3001H97.4689L97.4715 17.3026ZM102.712 15.2707C102.401 13.8888 101.365 13.2164 100.144 13.2164C98.7153 13.2164 97.7395 13.9682 97.431 15.2707H102.715H102.712Z" fill="white"/>
<path d="M116 21.3068H112.913L110.675 18.2155L108.418 21.3068H105.331L109.123 16.1215L105.498 11.1396H108.585L110.678 14.0052L112.771 11.1396H115.838L112.213 16.0992L116.005 21.3043L116 21.3068Z" fill="white"/>
</g>
<defs>
<clipPath id="clip0_1127_2841">
<rect width="116" height="32" fill="white"/>
</clipPath>
</defs>
</svg>
